<?xml version="1.0" encoding="utf-8"?>
<!-- Generator: Adobe Illustrator 26.3.1, SVG Export Plug-In . SVG Version: 6.00 Build 0)  -->
<svg version="1.1" id="Lager_1" xmlns="http://www.w3.org/2000/svg" xmlns:xlink="http://www.w3.org/1999/xlink" x="0px" y="0px"
	 viewBox="0 0 512 512" style="enable-background:new 0 0 512 512;" xml:space="preserve">
<style type="text/css">
	.st0{fill:#EAD4F6;}
</style>
<path class="st0" d="M326.1,160L453.5,32.6c-1.8-0.2-3.6-0.6-5.5-0.6h-86.1l-128,128H326.1z M166.1,160l128-128h-92.2l-128,128
	H166.1z M497.7,56.2L393.9,160H512V96C512,80.9,506.5,67.2,497.7,56.2z M134.1,32H64C28.6,32,0,60.7,0,96v64h6.1L134.1,32z M0,416
	c0,35.4,28.6,64,64,64h384c35.4,0,64-28.6,64-64V192H0V416z"/>
</svg>
